<?xml version="1.0"?>
<svg xmlns="http://www.w3.org/2000/svg" xmlns:xlink="http://www.w3.org/1999/xlink" version="1.1" id="Capa_1" x="0px" y="0px" viewBox="0 0 480 480" style="enable-background:new 0 0 480 480;" xml:space="preserve" width="512px" height="512px" class=""><g><path d="M278.944,17.577c-5.568-2.656-12.128-1.952-16.928,1.92L106.368,144.009H32c-17.664,0-32,14.336-32,32v128  c0,17.664,14.336,32,32,32h74.368l155.616,124.512c2.912,2.304,6.464,3.488,10.016,3.488c2.368,0,4.736-0.544,6.944-1.6  c5.536-2.656,9.056-8.256,9.056-14.4v-416C288,25.865,284.48,20.265,278.944,17.577z" data-original="#000000" class="active-path" data-old_color="#000000" fill="#FFFFFF"/><path d="M464,224.009H336c-8.832,0-16,7.168-16,16s7.168,16,16,16h128c8.832,0,16-7.168,16-16S472.832,224.009,464,224.009z" data-original="#000000" class="active-path" data-old_color="#000000" fill="#FFFFFF"/></g> </svg>
