<svg id="Layer_1" data-name="Layer 1" xmlns="http://www.w3.org/2000/svg" viewBox="0 0 279.51 98.61"><defs><style>.cls-1{fill:#fff;}</style></defs><title>Artboard 1</title><path class="cls-1" d="M98.95,52.53a.92.92,0,0,1-.61-.21.91.91,0,0,1-.3-.62c0-.1,0-.24,0-.43v-20c0-.21,0-.36,0-.47a.86.86,0,0,1,.33-.65.93.93,0,0,1,.6-.18h13.63a25.84,25.84,0,0,1,5.64.55,10.41,10.41,0,0,1,4.21,1.91A8.36,8.36,0,0,1,125,35.95a14.27,14.27,0,0,1,.85,5.25,14.66,14.66,0,0,1-.85,5.35,8.3,8.3,0,0,1-2.59,3.56A10.46,10.46,0,0,1,118.23,52a26.32,26.32,0,0,1-5.63.54Zm13.65-2.48a21.47,21.47,0,0,0,5.1-.52A7.44,7.44,0,0,0,120.84,48a5.77,5.77,0,0,0,1.67-2.66A14,14,0,0,0,123,41.2a13.66,13.66,0,0,0-.53-4.07,5.75,5.75,0,0,0-1.67-2.65,7.48,7.48,0,0,0-3.15-1.55,21.22,21.22,0,0,0-5.09-.52H100.86V50.06Z"/><path class="cls-1" d="M131.23,52.53a2.39,2.39,0,0,1-.39,0,.83.83,0,0,1-.55-.37,1.09,1.09,0,0,1-.15-.45c0-.16,0-.28,0-.43V31.43c0-.17,0-.31,0-.43a1.32,1.32,0,0,1,.15-.6,1,1,0,0,1,.58-.42,2.41,2.41,0,0,1,.58-.06h18.08a2.22,2.22,0,0,1,.61.08,1.29,1.29,0,0,1,.61.37,1.23,1.23,0,0,1,.27.82,1.09,1.09,0,0,1-.27.76,1.24,1.24,0,0,1-.61.36,2.15,2.15,0,0,1-.61.08H133V39.6h15.92a2.61,2.61,0,0,1,.93.15,1.09,1.09,0,0,1,.67,1.07,1.14,1.14,0,0,1-.54,1.08,1.85,1.85,0,0,1-.92.21H133v7.94h16.59a2.24,2.24,0,0,1,.62.08,1.3,1.3,0,0,1,.6.36,1.06,1.06,0,0,1,.27.76,1.33,1.33,0,0,1-.19.76,1.18,1.18,0,0,1-.57.42,1.66,1.66,0,0,1-.59.1Z"/><path class="cls-1" d="M178.26,52.53a2.34,2.34,0,0,1-1.5-.74L158,34.65v16a3,3,0,0,1-.21,1.17,1.35,1.35,0,0,1-2.44,0,3.29,3.29,0,0,1-.18-1.16V31.79a2.14,2.14,0,0,1,.31-1.22,1.29,1.29,0,0,1,1.08-.57,2.32,2.32,0,0,1,1.52.73l18.64,17.39V32c0-.21,0-.4,0-.59a2,2,0,0,1,.15-.66,1.37,1.37,0,0,1,.45-.58,1.28,1.28,0,0,1,.8-.24,1.22,1.22,0,0,1,1.22.84,3.61,3.61,0,0,1,.19,1.22V50.7C179.51,52.29,178.73,52.53,178.26,52.53Z"/><path class="cls-1" d="M197.91,52.91a40.06,40.06,0,0,1-4.15-.21c-1.44-.15-2.69-.33-3.85-.54s-2.23-.44-3.17-.69a14,14,0,0,1-2.14-.73,1.6,1.6,0,0,1-.65-.56,1.35,1.35,0,0,1-.22-.74,1.21,1.21,0,0,1,.26-.77,1,1,0,0,1,.84-.39,1.26,1.26,0,0,1,.5.11,19,19,0,0,0,2.07.64c.91.24,2,.46,3.13.68s2.44.38,3.74.52a37.69,37.69,0,0,0,3.93.21,24.63,24.63,0,0,0,3.56-.24,10.77,10.77,0,0,0,2.88-.8A5,5,0,0,0,206.52,48a3.21,3.21,0,0,0,.65-2.07,2.38,2.38,0,0,0-.52-1.61,4.07,4.07,0,0,0-1.57-1.09,11,11,0,0,0-2.52-.68c-1-.16-2-.28-3.16-.36S197.1,42,195.93,42s-2.42-.05-3.56-.16a32.69,32.69,0,0,1-3.27-.45,11,11,0,0,1-2.81-.9,5.56,5.56,0,0,1-2-1.63,4.24,4.24,0,0,1-.78-2.6,5.53,5.53,0,0,1,.52-2.45A5.7,5.7,0,0,1,185.43,32a8,8,0,0,1,2.08-1.24A14.44,14.44,0,0,1,190,30a21.83,21.83,0,0,1,2.81-.4c1-.08,1.94-.12,2.92-.12,1.24,0,2.44.06,3.57.17s2.3.26,3.3.45,2,.4,2.78.63a13.3,13.3,0,0,1,2,.71,1.12,1.12,0,0,1,.51.49,1.28,1.28,0,0,1,.14.58,1.37,1.37,0,0,1-.31.87,1.2,1.2,0,0,1-1,.46,1.24,1.24,0,0,1-.63-.16A18.65,18.65,0,0,0,204,33c-.85-.23-1.71-.41-2.56-.55s-1.9-.27-2.81-.35-1.93-.12-2.86-.12a29.64,29.64,0,0,0-3.75.23A12.8,12.8,0,0,0,189,33a5.26,5.26,0,0,0-2,1.34,2.81,2.81,0,0,0-.67,1.95,1.82,1.82,0,0,0,.49,1.34,4.14,4.14,0,0,0,1.57.95,12.24,12.24,0,0,0,2.52.59,23.38,23.38,0,0,0,3.14.2h3.5a30.37,30.37,0,0,1,3.58.21,29.67,29.67,0,0,1,3.29.58,10.68,10.68,0,0,1,2.81,1.07,5.69,5.69,0,0,1,2,1.85,5,5,0,0,1,.76,2.8,6,6,0,0,1-.5,2.47,5.79,5.79,0,0,1-1.37,1.88,7.87,7.87,0,0,1-2,1.32,13.88,13.88,0,0,1-2.46.84,19.71,19.71,0,0,1-2.79.44C199.89,52.87,198.9,52.91,197.91,52.91Z"/><path class="cls-1" d="M228.58,52.53a1.24,1.24,0,0,1-1.22-.83,3.46,3.46,0,0,1-.2-1.2V32.4H217a3.17,3.17,0,0,1-.89-.11,1,1,0,0,1-.73-1.05,1.22,1.22,0,0,1,.28-.84,1.35,1.35,0,0,1,.62-.38,2.23,2.23,0,0,1,.64-.08h23.33a2,2,0,0,1,.62.09,1.2,1.2,0,0,1,.57.4,1.27,1.27,0,0,1,.25.82,1,1,0,0,1-.68,1,2.84,2.84,0,0,1-.89.12H230V50.51c0,.21,0,.4,0,.58a2.07,2.07,0,0,1-.16.66,1.25,1.25,0,0,1-1.23.79Z"/><path class="cls-1" d="M257.1,52.53a1.72,1.72,0,0,1-1.5-1l-11.24-19.1a6.18,6.18,0,0,1-.29-.57,1.8,1.8,0,0,1-.16-.72,1.36,1.36,0,0,1,.24-.71,1.17,1.17,0,0,1,1-.53,1.46,1.46,0,0,1,1,.52,5.58,5.58,0,0,1,.49.72L257.12,49l10.45-17.83a4.75,4.75,0,0,1,.5-.72,1.42,1.42,0,0,1,.87-.51h0a1.21,1.21,0,0,1,1.08.49,1.41,1.41,0,0,1,.26.78,1.61,1.61,0,0,1-.19.71c-.09.18-.2.37-.31.54L258.61,51.56a2.1,2.1,0,0,1-.67.72A1.6,1.6,0,0,1,257.1,52.53Z"/><rect class="cls-1" x="212.23" y="50.4" width="2.53" height="2.14" rx="0.43" ry="0.43"/><path class="cls-1" d="M67.37,7.85H26.15A13.74,13.74,0,0,0,12.42,21.59V62.81A13.74,13.74,0,0,0,26.15,76.54H27.7c-.28.46-2.77,4.06-11.73,5.38,4.21,2.63,27.76,11.22,42.78-5.38h8.62A13.74,13.74,0,0,0,81.11,62.81V21.59A13.74,13.74,0,0,0,67.37,7.85Zm4.37,52.21a6.87,6.87,0,0,1-6.87,6.87H54.56c-6.9,7.48-15.93,11-24.12,10.83,4.08-2.32,6.35-7.59,7-10.83H28.65a6.87,6.87,0,0,1-6.87-6.87V23.85A6.87,6.87,0,0,1,28.65,17H64.87a6.87,6.87,0,0,1,6.87,6.87Z"/><path class="cls-1" d="M39.5,32.91c0-1.81,1.29-2.56,2.86-1.65l16.46,9.5c1.57.91,1.57,2.39,0,3.3l-16.46,9.5c-1.57.91-2.86.16-2.86-1.65Z"/><path class="cls-1" d="M132.69,64.68h1.06V71h-1.06Z"/><path class="cls-1" d="M136.53,67v2.43a.79.79,0,0,0,.18.54.64.64,0,0,0,.5.2.86.86,0,0,0,.62-.32l.41.71a1.72,1.72,0,0,1-1.17.48,1.51,1.51,0,0,1-1.1-.45,1.6,1.6,0,0,1-.46-1.2V67h-.6v-.81h.6v-1.5h1v1.5h1.26V67Z"/><path class="cls-1" d="M139,65.7a.47.47,0,0,1-.24-.43.58.58,0,0,1,.16-.44.56.56,0,0,1,.41-.16.59.59,0,0,1,.41.15.52.52,0,0,1,.17.4.83.83,0,0,1-.16.48l-.53.77h-.55Z"/><path class="cls-1" d="M144.2,69.54a1.35,1.35,0,0,1-.5,1.09,1.92,1.92,0,0,1-1.27.41,3.41,3.41,0,0,1-1.09-.19,3.25,3.25,0,0,1-1-.53l.49-.78a2.71,2.71,0,0,0,1.62.63A.84.84,0,0,0,143,70a.49.49,0,0,0,.2-.4c0-.24-.32-.46-1-.65l-.11,0q-1.49-.41-1.49-1.35a1.28,1.28,0,0,1,.52-1.07,2.14,2.14,0,0,1,1.35-.4,2.8,2.8,0,0,1,1.56.49l-.38.75a2.26,2.26,0,0,0-1.27-.39,1.15,1.15,0,0,0-.58.13.43.43,0,0,0-.23.39.36.36,0,0,0,.23.34,2.3,2.3,0,0,0,.46.15l.52.14.44.16a2.86,2.86,0,0,1,.46.25A1.13,1.13,0,0,1,144.2,69.54Z"/><path class="cls-1" d="M149.85,65.51a1.4,1.4,0,0,0-.76.19.63.63,0,0,0-.3.57.66.66,0,0,0,.3.58,4.47,4.47,0,0,0,1.27.44,3.47,3.47,0,0,1,1.46.66,1.55,1.55,0,0,1,.49,1.25,1.65,1.65,0,0,1-.62,1.34,2.48,2.48,0,0,1-1.63.51,3.83,3.83,0,0,1-2.62-1l.67-.8a3,3,0,0,0,2,.83,1.35,1.35,0,0,0,.81-.22.69.69,0,0,0,.3-.58.66.66,0,0,0-.28-.57,3,3,0,0,0-1-.37,8.72,8.72,0,0,1-1.05-.31,2.41,2.41,0,0,1-.64-.36,1.52,1.52,0,0,1-.56-1.3,1.58,1.58,0,0,1,.63-1.35,2.56,2.56,0,0,1,1.57-.47,3.76,3.76,0,0,1,1.2.2,3.15,3.15,0,0,1,1,.56l-.57.8a2.14,2.14,0,0,0-.76-.41A2.9,2.9,0,0,0,149.85,65.51Z"/><path class="cls-1" d="M153.54,65.23a.64.64,0,0,1,.45-1.09.64.64,0,0,1,0,1.28A.61.61,0,0,1,153.54,65.23Zm.95,5.74h-1V66.18h1Z"/><path class="cls-1" d="M156.95,68.38V71h-1V66.18h1v.87a1.6,1.6,0,0,1,.65-.69,1.85,1.85,0,0,1,.94-.25,1.52,1.52,0,0,1,1.54.94,2.15,2.15,0,0,1,1.77-.94,1.78,1.78,0,0,1,1.31.5,1.93,1.93,0,0,1,.5,1.43V71h-1V68.34q0-1.32-1.1-1.32a1.33,1.33,0,0,0-.89.33,1.24,1.24,0,0,0-.4,1V71h-1V68.34a1.66,1.66,0,0,0-.24-1,.9.9,0,0,0-.76-.32,1.32,1.32,0,0,0-.91.35A1.29,1.29,0,0,0,156.95,68.38Z"/><path class="cls-1" d="M167.63,66.11a2.27,2.27,0,0,1,1.65.67,2.37,2.37,0,0,1,.68,1.77,2.46,2.46,0,0,1-.68,1.8,2.11,2.11,0,0,1-3.21-.1v2.47h-1V66.18h1V67A1.79,1.79,0,0,1,167.63,66.11Zm-1.58,2.48a1.56,1.56,0,0,0,.41,1.12,1.34,1.34,0,0,0,1,.44,1.43,1.43,0,0,0,1-.43,1.5,1.5,0,0,0,.44-1.12,1.6,1.6,0,0,0-.43-1.14,1.38,1.38,0,0,0-1-.46,1.33,1.33,0,0,0-1,.46A1.63,1.63,0,0,0,166.05,68.59Z"/><path class="cls-1" d="M172.12,71h-1V64.29h1Z"/><path class="cls-1" d="M174.18,72.88A1.73,1.73,0,0,1,173,72.4l.46-.82a1,1,0,0,0,.65.3.69.69,0,0,0,.55-.24.79.79,0,0,0,.21-.53q0-.13-1.93-4.92H174l1.43,3.53,1.43-3.53H178l-2.32,5.69a1.73,1.73,0,0,1-.59.74A1.46,1.46,0,0,1,174.18,72.88Z"/><path class="cls-1" d="M185.77,64.68v1h-3.36v1.67h3v.94h-3V70h3.47v1h-4.53V64.68Z"/><path class="cls-1" d="M188.11,68.38V71h-1V66.18h1v.87a1.88,1.88,0,0,1,2.9-.45,1.93,1.93,0,0,1,.5,1.43V71h-1V68.34q0-1.32-1.1-1.32a1.32,1.32,0,0,0-.91.35A1.29,1.29,0,0,0,188.11,68.38Z"/><path class="cls-1" d="M194.09,67v2.43a.79.79,0,0,0,.18.54.64.64,0,0,0,.5.2.86.86,0,0,0,.62-.32l.41.71a1.72,1.72,0,0,1-1.17.48,1.51,1.51,0,0,1-1.1-.45,1.6,1.6,0,0,1-.46-1.2V67h-.6v-.81h.6v-1.5h1v1.5h1.26V67Z"/><path class="cls-1" d="M201.06,69h-3.75a1.09,1.09,0,0,0,.48.84,1.86,1.86,0,0,0,2.38-.25l.58.63a2.68,2.68,0,0,1-2,.8,2.39,2.39,0,0,1-1.71-.67,2.36,2.36,0,0,1-.71-1.8,2.33,2.33,0,0,1,.72-1.8,2.42,2.42,0,0,1,1.7-.67,2.45,2.45,0,0,1,1.66.59,2,2,0,0,1,.68,1.62Zm-3.75-.79h2.74a1.15,1.15,0,0,0-.38-.93,1.38,1.38,0,0,0-.93-.32,1.59,1.59,0,0,0-1,.34A1.09,1.09,0,0,0,197.31,68.23Z"/><path class="cls-1" d="M204.68,67.13a1.34,1.34,0,0,0-1.12.49,2.07,2.07,0,0,0-.38,1.31V71h-1V66.18h1v1a2.09,2.09,0,0,1,.66-.74,1.6,1.6,0,0,1,.89-.3v1Z"/><path class="cls-1" d="M207,67v2.43a.78.78,0,0,0,.18.54.64.64,0,0,0,.5.2.86.86,0,0,0,.62-.32l.41.71a1.72,1.72,0,0,1-1.18.48,1.51,1.51,0,0,1-1.1-.45,1.61,1.61,0,0,1-.46-1.2V67h-.6v-.81h.6v-1.5h1v1.5h1.26V67Z"/><path class="cls-1" d="M213.39,71h-.92v-.64a2,2,0,0,1-1.59.71,1.83,1.83,0,0,1-1.24-.42,1.42,1.42,0,0,1-.49-1.13,1.19,1.19,0,0,1,.52-1.06,2.5,2.5,0,0,1,1.41-.35h1.3V67.9q0-1-1.06-1a2.48,2.48,0,0,0-1.38.49l-.45-.63a3.1,3.1,0,0,1,2-.69,2.14,2.14,0,0,1,1.38.43,1.62,1.62,0,0,1,.54,1.35Zm-1-1.78v-.41h-1.13q-1.09,0-1.09.68a.61.61,0,0,0,.27.54,1.31,1.31,0,0,0,.75.18,1.36,1.36,0,0,0,.84-.27A.86.86,0,0,0,212.38,69.19Z"/><path class="cls-1" d="M214.85,65.23a.64.64,0,0,1,.45-1.09.64.64,0,0,1,0,1.28A.61.61,0,0,1,214.85,65.23ZM215.8,71h-1V66.18h1Z"/><path class="cls-1" d="M218.26,68.38V71h-1V66.18h1v.87a1.88,1.88,0,0,1,2.9-.45,1.92,1.92,0,0,1,.5,1.43V71h-1V68.34q0-1.32-1.1-1.32a1.32,1.32,0,0,0-.91.35A1.29,1.29,0,0,0,218.26,68.38Z"/><path class="cls-1" d="M223.13,65.23a.64.64,0,0,1,.45-1.09.64.64,0,0,1,0,1.28A.61.61,0,0,1,223.13,65.23Zm.95,5.74h-1V66.18h1Z"/><path class="cls-1" d="M226.54,68.38V71h-1V66.18h1v.87a1.88,1.88,0,0,1,2.9-.45,1.92,1.92,0,0,1,.5,1.43V71h-1V68.34q0-1.32-1.1-1.32a1.32,1.32,0,0,0-.91.35A1.29,1.29,0,0,0,226.54,68.38Z"/><path class="cls-1" d="M235.78,66.18v4.18a2.46,2.46,0,0,1-.69,1.9,2.51,2.51,0,0,1-1.77.63,3.12,3.12,0,0,1-2-.67l.48-.77a2.34,2.34,0,0,0,1.42.53,1.66,1.66,0,0,0,1.13-.37,1.49,1.49,0,0,0,.42-1.18v-.61a1.73,1.73,0,0,1-.64.68,1.79,1.79,0,0,1-.94.25,2,2,0,0,1-1.57-.67,2.55,2.55,0,0,1,0-3.31,2,2,0,0,1,1.56-.67,1.85,1.85,0,0,1,1.54.78v-.71ZM232,68.39a1.52,1.52,0,0,0,.36,1,1.23,1.23,0,0,0,1,.43,1.3,1.3,0,0,0,1-.41,1.46,1.46,0,0,0,.38-1,1.5,1.5,0,0,0-.39-1,1.29,1.29,0,0,0-1-.43,1.2,1.2,0,0,0-1,.44A1.57,1.57,0,0,0,232,68.39Z"/></svg>